<svg xmlns="http://www.w3.org/2000/svg" xmlns:xlink="http://www.w3.org/1999/xlink" width="26.552" height="19.159" viewBox="0 0 26.552 19.159"><defs><linearGradient id="a" y1="0.691" x2="1.212" y2="0.611" gradientUnits="objectBoundingBox"><stop offset="0" stop-color="#e6d0a5"/><stop offset="1" stop-color="#bb934d"/></linearGradient><clipPath id="b"><rect width="26.552" height="19.159" fill="url(#a)"/></clipPath><clipPath id="g"><path d="M3.951,18.4c.072-.37.152-.74.24-1.1.274-.007.473.036.473.394,0,.374-.172.717-.577.717a1.34,1.34,0,0,1-.136-.009m.157-1.329h-.44a.222.222,0,0,1-.031,0H2.374a.185.185,0,0,0,0,.37h.624a.194.194,0,0,1,.189.239.2.2,0,0,1-.2.151l-1.9.006a.191.191,0,0,0-.189.2.189.189,0,0,0,.2.18l1.154-.006a.193.193,0,0,1,.189.236.2.2,0,0,1-.192.153H.2a.2.2,0,0,0-.2.2v.013a.149.149,0,0,0,0,.029.21.21,0,0,0,.211.164H2.995a.191.191,0,0,1,.189.208l-.018.073a.2.2,0,0,1-.174.109H1.77a.193.193,0,0,0-.194.189.2.2,0,0,0,.208.2H3.351a2.755,2.755,0,0,1,.314.02c.067-.406.156-.824.251-1.2a2.915,2.915,0,0,0,.318.02c.562,0,1.023-.267,1.023-.871,0-.482-.3-.677-.76-.677Z" transform="translate(0 -17.076)" fill="#003468"/></clipPath><clipPath id="h"><path d="M8.958,17.029a1.06,1.06,0,0,1-.175-.02c-.147.939-.494,2.452-.593,2.774a1.059,1.059,0,0,1,.163-.02,1.223,1.223,0,0,1,.172.02c.048-.35.23-1.325.393-1.985.454.665.916,1.341,1.314,2.029a.863.863,0,0,1,.158-.02.967.967,0,0,1,.167.02c.108-.625.211-1.146.275-1.428.235-1.023.255-1.1.323-1.345a.684.684,0,0,1-.164.02.57.57,0,0,1-.155-.02c-.06.382-.291,1.532-.41,1.963-.235-.319-.975-1.421-1.294-2.006a.959.959,0,0,1-.175.02" transform="translate(-8.189 -17.009)" fill="#003468"/></clipPath><clipPath id="i"><path d="M13.617,17.1a2.981,2.981,0,0,1-.327-.02c-.076.505-.414,2.158-.5,2.539-.1.446-.155.6-.526.628l.024.183a1.293,1.293,0,0,0,.725-.168c.311-.194.386-.592.494-1.237.072-.426.115-.677.263-1.305.02-.091.136-.541.159-.641-.1.008-.2.02-.31.02" transform="translate(-12.263 -17.076)" fill="#003468"/></clipPath><clipPath id="j"><path d="M18.022,17.1c-.227,0-.494,0-.8-.02a24.433,24.433,0,0,1-.613,2.73,2.728,2.728,0,0,1,.322-.02,3.074,3.074,0,0,1,.335.02,13.034,13.034,0,0,1,.263-1.317,7.165,7.165,0,0,1,.88.048.833.833,0,0,1,.071-.318c-.164.009-.291.016-.494.016s-.31,0-.4-.012c.044-.219.143-.641.211-.867a7.916,7.916,0,0,1,.9.047.669.669,0,0,1,.071-.326c-.266.012-.529.02-.744.02" transform="translate(-16.605 -17.076)" fill="#003468"/></clipPath><clipPath id="k"><path d="M20.253,18.719c.175-.314.37-.625.561-.932.092.351.139.582.2.932-.1,0-.236.009-.359.009s-.274,0-.406-.009m.812-1.671a.736.736,0,0,1-.152-.02c-.179.342-.231.434-.8,1.433q-.389.675-.8,1.329a1.34,1.34,0,0,1,.2-.02.826.826,0,0,1,.171.02c.2-.406.338-.656.442-.831.131,0,.23-.008.437-.008s.354,0,.506.008c.007.048.052.278.059.335.032.211.048.374.064.5a3.076,3.076,0,0,1,.319-.02c.131,0,.259.012.338.02-.267-.963-.609-2.642-.628-2.762a.7.7,0,0,1-.151.02" transform="translate(-19.31 -17.027)" fill="#003468"/></clipPath><clipPath id="l"><path d="M23.919,17.843a1,1,0,0,0,.493.792c.231.19.422.354.422.569a.421.421,0,0,1-.458.394.523.523,0,0,1-.549-.5h-.084a1.949,1.949,0,0,1-.171.485,1.43,1.43,0,0,0,.832.243.875.875,0,0,0,.962-.859.962.962,0,0,0-.457-.753c-.307-.259-.466-.394-.466-.6a.377.377,0,0,1,.41-.362.454.454,0,0,1,.477.442h.088a1.837,1.837,0,0,1,.172-.474A1.318,1.318,0,0,0,24.838,17a.833.833,0,0,0-.919.84" transform="translate(-23.573 -17.003)" fill="#003468"/></clipPath><clipPath id="m"><path d="M28.264,17.1c-.351,0-.664-.007-.983-.02a1.05,1.05,0,0,1-.071.31c.274-.024.442-.024.748-.024-.06.342-.128.685-.2,1.023-.1.477-.227.951-.35,1.42.087-.007.2-.02.314-.02s.223.012.338.02c.068-.461.172-.915.271-1.368s.187-.78.266-1.075c.183,0,.4.008.649.032a1.036,1.036,0,0,1,.067-.319c-.254.016-.759.02-1.05.02" transform="translate(-27.209 -17.076)" fill="#003468"/></clipPath></defs><g transform="translate(0 0)"><g transform="translate(0 0)"><g clip-path="url(#b)"><path d="M.864,7.3a.976.976,0,0,1,1.036-.6c1.019.023,4.127.013,5.147.005A.837.837,0,0,0,7.9,5.578a.78.78,0,0,0-.737-.549c-.318-.015-1.889,0-2.206-.012a.826.826,0,0,1-.785-.593.793.793,0,0,1,.313-.907,1.334,1.334,0,0,1,.549-.165c.275-.028,1.806,0,2.083-.01A.822.822,0,0,0,7.948,2.5a.833.833,0,0,0-.854-.825c-.522-.006-3.132,0-3.654,0a.826.826,0,0,1-.916-.83A.834.834,0,0,1,3.435,0c4.236,0,9.2,0,13.438.01.726,0,1.453.034,2.177.079A1.876,1.876,0,0,1,20.9,1.777c.007.039.022.077.042.153.476,0,.956,0,1.436,0a3.029,3.029,0,0,1,1.94.552,3.133,3.133,0,0,1,.772.8c.458.741.856,1.518,1.278,2.28a2.414,2.414,0,0,1,.245,1.681c-.155.809-.28,1.623-.442,2.43a3.035,3.035,0,0,1-.8,1.568,1.53,1.53,0,0,1-1.172.483c-.022-.177-.031-.346-.063-.512A2.372,2.372,0,0,0,21.42,9.282a3.308,3.308,0,0,0-2.83,2.5c-.009.03-.018.061-.031.1H14.979a7.032,7.032,0,0,0-.105-.819A2.43,2.43,0,0,0,11.68,9.384a3.167,3.167,0,0,0-2.164,2,.428.428,0,0,1-.488.336c-.955-.022-4-.007-4.952-.009a.838.838,0,1,1,0-1.669c.31,0,2.707,0,3.017,0a.833.833,0,0,0,.85-.828.824.824,0,0,0-.861-.838c-1.012,0-4.112-.017-5.123.005a1.056,1.056,0,0,1-1.1-.59ZM20.413,6.52c.107.005.194.013.281.013h1.591c.751,0,1.5.007,2.253,0a.55.55,0,0,0,.514-.858Q24.592,4.823,24.092,4a1.675,1.675,0,0,0-1.235-.843c-.66-.079-1.33-.069-2.005-.1-.148,1.177-.292,2.307-.438,3.462" transform="translate(-0.118 0)" fill="url(#a)"/><path d="M13.336,15.533a1.564,1.564,0,0,1-1.567-1.924,2.186,2.186,0,0,1,2.068-1.759,1.565,1.565,0,0,1,1.614,1.8,2.191,2.191,0,0,1-2.116,1.879" transform="translate(-1.605 -1.621)" fill="url(#a)"/><path d="M24.044,15.533a1.558,1.558,0,0,1-1.587-1.863,2.188,2.188,0,0,1,2.039-1.82,1.571,1.571,0,0,1,1.639,1.888,2.194,2.194,0,0,1-2.091,1.795" transform="translate(-3.068 -1.621)" fill="url(#a)"/><path d="M2.974,3.9a.827.827,0,0,1,.836.836.836.836,0,0,1-1.671,0A.828.828,0,0,1,2.974,3.9" transform="translate(-0.293 -0.534)" fill="url(#a)"/></g></g><g transform="translate(3.173 15.267)"><g transform="translate(0 0)" clip-path="url(#g)"><rect width="5.257" height="2.73" transform="translate(0 0)" fill="#003468"/></g></g><g transform="translate(8.534 15.223)"><g transform="translate(0 0)" clip-path="url(#h)"><rect width="2.965" height="2.818" transform="translate(0 0)" fill="#003468"/></g></g><g transform="translate(11.201 15.267)"><g transform="translate(0 0)" clip-path="url(#i)"><rect width="1.663" height="3.351" transform="translate(0 0)" fill="#003468"/></g></g><g transform="translate(14.043 15.267)"><g transform="translate(0 0)" clip-path="url(#j)"><rect width="2.16" height="2.73" transform="translate(0 0)" fill="#003468"/></g></g><g transform="translate(15.814 15.235)"><g transform="translate(0 0)" clip-path="url(#k)"><rect width="2.535" height="2.762" transform="translate(0 0)" fill="#003468"/></g></g><g transform="translate(18.605 15.219)"><g transform="translate(0 0)" clip-path="url(#l)"><rect width="2.018" height="2.821" transform="translate(0 0)" fill="#003468"/></g></g><g transform="translate(20.985 15.267)"><g transform="translate(0 0)" clip-path="url(#m)"><rect width="2.105" height="2.73" transform="translate(0 0)" fill="#003468"/></g></g></g></svg>