<svg xmlns="http://www.w3.org/2000/svg" xmlns:xlink="http://www.w3.org/1999/xlink" width="17.901" height="19.159" viewBox="0 0 17.901 19.159"><defs><linearGradient id="a" x1="0.5" x2="0.5" y2="1" gradientUnits="objectBoundingBox"><stop offset="0" stop-color="#e6d0a5"/><stop offset="1" stop-color="#bb934d"/></linearGradient><clipPath id="b"><rect width="17.901" height="19.159" fill="#003468"/></clipPath><clipPath id="c"><path d="M5.355,3.368a.463.463,0,1,0,.018.923c.408.007.816.018,1.222,0,.235-.013.314.083.366.292.382,1.552.774,3.1,1.161,4.653.148.589.291,1.18.444,1.8-.163,0-.288,0-.413,0a1.426,1.426,0,1,0,.114,2.849q4.22.007,8.441,0a.78.78,0,0,0,.23-.021.462.462,0,0,0-.056-.9,1.819,1.819,0,0,0-.29-.006H8.443a2.158,2.158,0,0,1-.29-.007.487.487,0,0,1-.433-.5.481.481,0,0,1,.456-.477,2.9,2.9,0,0,1,.291,0q3.8,0,7.6,0A1.42,1.42,0,0,0,17.5,10.951c.421-1.248.84-2.5,1.242-3.752a1.635,1.635,0,0,0,.07-.712A1.41,1.41,0,0,0,17.3,5.28q-4.424,0-8.849,0H8.091c-.126-.5-.251-.99-.369-1.478a.5.5,0,0,0-.5-.435c-.322,0-.644-.006-.964-.006-.3,0-.6,0-.9.009" transform="translate(-4.871 -3.359)" fill="url(#a)"/></clipPath><clipPath id="e"><path d="M9.6,17.39a.814.814,0,1,0,.812-.824h0a.819.819,0,0,0-.81.824" transform="translate(-9.602 -16.566)" fill="#003468"/></clipPath><clipPath id="f"><path d="M17.875,17.39a.814.814,0,1,0,.812-.824h0a.819.819,0,0,0-.809.824" transform="translate(-17.875 -16.566)" fill="#003468"/></clipPath></defs><g transform="translate(0)"><g transform="translate(0 0)"><g clip-path="url(#b)"><path d="M10.926,15.457c0-.427,0-.855,0-1.282a.337.337,0,0,1,.339-.362.334.334,0,0,1,.337.362c0,.812.027,1.626-.013,2.435a2.7,2.7,0,0,1-2.671,2.541c-2.08.011-4.159.014-6.239-.008a2.639,2.639,0,0,1-1.05-.234A2.6,2.6,0,0,1,.006,16.414C0,11.856,0,7.3,0,2.739c0-.043,0-.086,0-.128A2.716,2.716,0,0,1,2.627.014C4.741-.006,6.857,0,8.972.012a2.678,2.678,0,0,1,2.568,2.167,10.109,10.109,0,0,1,.067,1.49c.006.263-.122.4-.333.407s-.343-.143-.347-.418,0-.541,0-.812A2.05,2.05,0,0,0,8.761.691q-2.959,0-5.918,0A2.044,2.044,0,0,0,.686,2.85q0,6.325,0,12.65c0,.075.006.149.01.221h10.23v-.264M6.595,17.711c.254,0,.4-.132.4-.341a.343.343,0,0,0-.384-.34q-.811-.009-1.622,0a.338.338,0,0,0-.377.344c0,.2.141.332.383.336.27,0,.541,0,.81,0s.526,0,.789,0" transform="translate(0 0)" fill="#003468"/></g></g><g transform="translate(3.948 2.722)"><g clip-path="url(#c)"><rect width="13.979" height="10.529" transform="translate(-0.005 0)" fill="url(#a)"/></g></g><g transform="translate(7.782 13.426)"><g clip-path="url(#e)"><rect width="1.635" height="1.633" transform="translate(-0.005 0)" fill="#003468"/></g></g><g transform="translate(14.487 13.426)"><g clip-path="url(#f)"><rect width="1.634" height="1.633" transform="translate(-0.005 0)" fill="#003468"/></g></g></g></svg>