<svg xmlns="http://www.w3.org/2000/svg" xmlns:xlink="http://www.w3.org/1999/xlink" width="22.595" height="19.467" viewBox="0 0 22.595 19.467"><defs><linearGradient id="a" x1="0.5" x2="0.5" y2="1" gradientUnits="objectBoundingBox"><stop offset="0" stop-color="#e6d0a5"/><stop offset="1" stop-color="#bb934d"/></linearGradient><clipPath id="d"><rect width="22.595" height="19.467" fill="#003468"/></clipPath></defs><path d="M13.3,11.4,6.691,7.982,13.3,4.556l6.621,3.426Z" transform="translate(-2.102 -1.124)" fill="url(#a)"/><path d="M6.334,10.113l6.614,3.426v6.839L6.334,16.952Z" transform="translate(-1.99 -2.869)" fill="url(#a)"/><path d="M23.315,10.113v6.839L16.7,20.372V13.533Z" transform="translate(-5.247 -2.869)" fill="url(#a)"/><g transform="translate(0 0)"><g transform="translate(0 0)" clip-path="url(#d)"><path d="M19.325,19.467a.517.517,0,0,1-.359-.146.549.549,0,0,1-.024-.761,10.6,10.6,0,0,0-.456-14.678A9.92,9.92,0,0,0,4.2,4.35,10.617,10.617,0,0,0,2.976,16.923a.549.549,0,0,1-.17.742.517.517,0,0,1-.723-.174A11.718,11.718,0,0,1,3.435,3.614,10.958,10.958,0,0,1,19.2,3.1a11.7,11.7,0,0,1,.5,16.2.514.514,0,0,1-.382.17" transform="translate(-0.125 0)" fill="#003468"/><path d="M4.172,25.256a14.669,14.669,0,0,1-.741-4.572L2.21,22.726,0,23.493a13.715,13.715,0,0,1,4.172,1.763" transform="translate(0 -5.835)" fill="#003468"/></g></g></svg>